<?xml version="1.0" standalone="no"?>
<!DOCTYPE svg PUBLIC "-//W3C//DTD SVG 20010904//EN"
 "http://www.w3.org/TR/2001/REC-SVG-20010904/DTD/svg10.dtd">
<svg version="1.0" xmlns="http://www.w3.org/2000/svg"
 width="256.000000pt" height="256.000000pt" viewBox="0 0 256.000000 256.000000"
 preserveAspectRatio="xMidYMid meet">
<metadata>
Created by potrace 1.14, written by Peter Selinger 2001-2017
</metadata>
<g transform="translate(0.000000,256.000000) scale(0.100000,-0.100000)"
fill="#000000" stroke="none">
<path d="M25 2540 c4 -11 2 -20 -4 -20 -6 0 -8 -7 -5 -15 9 -23 19 -18 48 20
l27 35 -36 0 c-32 0 -36 -3 -30 -20z"/>
<path d="M72 2521 c-18 -22 -30 -46 -27 -53 3 -8 -6 -25 -20 -38 -20 -19 -25
-33 -25 -74 0 -42 5 -55 30 -81 20 -21 28 -37 24 -48 -7 -18 -24 -23 -24 -7 0
6 5 10 10 10 17 0 10 14 -15 33 l-25 18 0 -41 c0 -27 4 -39 11 -34 8 5 8 1 0
-14 -18 -33 -14 -97 7 -115 25 -23 41 -21 71 6 14 12 20 15 13 5 -10 -13 -10
-17 0 -21 7 -2 0 -8 -17 -12 -16 -5 -33 -13 -38 -19 -5 -7 -12 -5 -21 7 -7 9
-16 17 -19 17 -3 0 -6 -39 -6 -87 -1 -82 1 -89 27 -117 l27 -30 -27 17 -27 17
0 -194 c0 -143 3 -196 12 -200 9 -5 9 -7 0 -12 -10 -4 -13 -53 -13 -192 0
-162 2 -188 17 -206 17 -20 17 -20 0 -7 -16 12 -17 9 -17 -53 0 -37 4 -66 10
-66 6 0 10 -6 10 -14 0 -9 19 -18 50 -25 62 -13 63 -13 55 -1 -3 5 0 7 9 4 36
-14 128 70 163 148 9 21 22 37 27 36 6 0 24 4 39 10 16 7 30 12 31 12 2 0 34
-47 70 -104 37 -58 74 -110 81 -116 8 -7 12 -16 9 -21 -3 -5 0 -9 5 -9 18 0
12 -39 -11 -80 -26 -45 -53 -54 -46 -16 3 17 1 23 -8 19 -7 -3 -21 11 -32 33
l-19 37 -25 -41 c-24 -42 -38 -45 -38 -10 0 10 -3 18 -7 18 -5 0 -21 11 -37
25 -31 26 -41 31 -31 15 3 -5 -2 -19 -13 -30 -18 -20 -18 -20 -40 10 -22 29
-55 40 -66 21 -3 -4 5 -6 17 -4 18 4 26 -2 35 -22 9 -19 9 -31 2 -40 -5 -6 -7
-15 -3 -18 3 -4 0 -7 -7 -7 -7 0 -19 8 -27 17 -13 16 -14 15 -9 -15 3 -18 2
-31 -3 -28 -5 3 -11 -4 -14 -16 -7 -24 3 -41 10 -20 7 18 23 4 23 -19 0 -21
-16 -26 -23 -6 -4 8 -6 9 -6 0 -1 -6 6 -18 14 -27 10 -9 11 -17 5 -21 -6 -4
-7 -11 -4 -17 4 -6 3 -8 -3 -5 -5 3 -20 0 -34 -6 -13 -7 -41 -12 -61 -11 -34
2 -37 0 -27 -17 5 -10 13 -19 18 -19 4 0 13 -12 20 -27 l12 -28 -26 30 c-53
62 -59 73 -44 93 13 15 12 16 -4 3 -9 -7 -17 -20 -17 -28 0 -7 -7 -16 -15 -19
-11 -5 -15 -22 -15 -62 0 -47 4 -61 28 -86 l27 -31 -28 24 -27 24 0 -221 0
-222 1280 0 1280 0 0 351 c0 238 -4 357 -11 372 -6 12 -30 41 -52 65 l-41 42
28 0 c19 0 25 4 20 12 -4 7 2 5 13 -4 41 -37 43 -29 43 197 l0 215 -23 0 c-13
0 -29 -6 -37 -13 -12 -10 -12 -9 -1 6 9 11 10 17 3 17 -6 0 -9 7 -6 15 4 8 12
15 20 15 8 0 14 7 14 16 0 8 -4 13 -9 9 -5 -3 -12 -1 -15 4 -4 5 -1 13 5 16
14 9 -30 56 -45 49 -6 -3 -4 0 5 8 9 7 14 18 12 25 -8 22 15 23 38 2 l24 -21
-27 16 c-27 16 -28 16 -24 -6 2 -13 9 -22 16 -20 6 1 9 -2 5 -7 -3 -6 3 -16
15 -23 11 -7 20 -16 20 -21 0 -4 -4 -6 -9 -3 -5 4 -7 -3 -4 -14 3 -11 9 -20
14 -20 14 0 11 104 -4 119 -9 11 -9 13 1 7 16 -10 17 130 0 140 -7 5 -8 3 -3
-7 8 -12 6 -12 -8 0 -15 12 -17 10 -17 -15 0 -21 -3 -25 -11 -17 -6 6 -18 9
-27 5 -11 -4 -14 -1 -9 11 3 8 0 21 -8 27 -7 6 -11 21 -9 33 3 16 0 14 -11 -8
l-16 -30 4 32 c2 18 -1 35 -7 37 -7 3 -6 5 2 5 6 1 12 6 12 12 0 5 -6 7 -12 3
-10 -6 -10 -5 0 8 10 12 10 17 0 26 -15 11 -58 -2 -58 -18 0 -14 17 -13 23 3
3 7 6 5 6 -5 1 -12 -6 -18 -19 -18 -11 0 -20 -5 -20 -12 0 -6 -8 -20 -17 -30
-22 -24 -26 -48 -7 -41 9 3 12 0 9 -9 -3 -9 4 -19 19 -27 13 -7 34 -27 46 -43
20 -27 20 -29 3 -19 -11 5 -26 17 -33 26 -7 9 -26 25 -41 36 l-27 19 -56 -55
c-31 -30 -56 -61 -56 -68 0 -15 92 -97 109 -97 6 0 20 14 33 30 12 17 28 30
35 30 19 0 17 -5 -17 -42 -32 -35 -37 -56 -17 -78 10 -12 9 -12 -5 -1 -9 7
-22 10 -28 6 -7 -4 -7 2 0 19 7 18 6 26 -2 26 -11 0 -97 66 -110 84 -4 7 -16
2 -31 -12 -13 -12 -27 -22 -33 -22 -5 1 7 14 26 31 l35 30 -60 54 -60 54 -50
-47 -49 -47 49 55 50 55 53 -50 c59 -55 79 -67 69 -41 -4 9 -3 15 1 12 5 -3
23 11 41 30 29 30 31 37 20 51 -12 14 -12 16 0 9 9 -6 12 -5 9 5 -3 8 -10 13
-16 12 -6 -2 -9 4 -6 12 4 9 1 15 -7 15 -8 0 -5 6 7 16 10 8 14 13 8 10 -7 -3
-23 3 -37 14 -34 27 -41 25 -21 -5 9 -14 12 -25 6 -25 -5 0 -12 7 -16 15 -9
25 -33 17 -65 -22 -17 -20 -33 -34 -36 -31 -3 3 12 24 32 48 37 41 60 90 43
90 -12 0 -70 62 -65 70 2 4 -2 7 -10 7 -13 0 -13 -3 0 -17 19 -21 19 -26 -1
-34 -8 -3 -12 -2 -9 3 3 6 -8 9 -25 9 -16 -1 -30 -4 -30 -8 0 -4 -12 -16 -27
-25 l-28 -18 25 29 c14 16 27 31 30 34 13 13 8 29 -7 23 -11 -4 -14 -3 -9 5 4
7 3 12 -1 12 -5 0 -14 10 -22 21 -12 20 -11 21 5 15 15 -6 14 -2 -5 18 -13 13
-20 29 -17 35 5 7 1 8 -10 4 -13 -5 -15 -3 -9 8 4 8 -16 -8 -45 -36 l-53 -50
43 53 c24 28 47 52 52 52 4 0 8 9 8 20 0 12 -5 17 -13 14 -7 -2 -32 16 -56 40
-25 25 -48 43 -53 40 -4 -3 -5 1 -3 8 4 10 20 1 52 -29 49 -46 73 -54 73 -25
0 14 2 14 9 3 6 -10 9 -2 8 22 0 21 -4 37 -8 37 -7 0 -1 71 7 79 3 3 8 1 12
-5 4 -6 16 -14 27 -18 13 -4 8 4 -15 26 -56 51 -63 48 -137 -51 -2 -2 -5 -2
-8 1 -3 3 12 27 34 53 22 27 38 52 35 57 -3 4 2 5 10 2 9 -3 16 -1 16 5 0 6 5
11 10 11 7 0 6 -8 -1 -22 -11 -21 -11 -22 4 -9 13 10 17 10 17 1 0 -10 3 -10
15 0 8 7 15 18 14 24 0 7 -2 6 -6 -1 -9 -23 -20 -14 -17 13 2 20 0 24 -9 15
-6 -6 -15 -11 -19 -11 -17 0 -7 22 25 53 23 22 33 40 32 57 -1 14 2 30 6 36
12 15 -26 48 -42 38 -7 -4 -10 -3 -6 3 4 6 -2 18 -12 27 -16 14 -20 15 -30 2
-7 -8 -9 -21 -5 -27 4 -7 3 -9 -4 -5 -6 4 -21 -7 -33 -23 -22 -30 -49 -48 -49
-32 0 12 76 103 93 113 10 5 28 -6 56 -32 23 -22 46 -40 51 -40 6 0 10 17 11
38 0 29 2 32 8 17 5 -11 5 -29 1 -40 -12 -32 31 -105 62 -105 8 0 13 34 10 78
0 12 4 22 10 22 7 0 7 4 -1 13 -6 8 -10 16 -8 18 1 3 -12 -10 -28 -28 -38 -42
-53 -32 -20 12 14 17 22 35 18 39 -4 4 0 4 10 0 16 -6 22 5 18 30 -1 5 5 6 13
3 9 -4 20 1 25 11 9 15 12 15 26 -6 9 -12 21 -19 27 -16 6 4 8 3 5 -3 -4 -5 5
-16 18 -23 14 -7 25 -18 25 -23 0 -6 10 -2 22 9 19 17 21 17 15 2 -3 -10 -1
-20 5 -24 6 -4 9 -3 6 2 -3 5 -1 20 5 34 16 42 17 100 1 100 -8 0 -14 -8 -15
-17 0 -15 -2 -15 -9 2 -6 15 -9 6 -9 -32 -1 -28 -5 -54 -10 -57 -4 -3 -6 6 -3
19 2 14 -2 31 -12 41 -13 12 -14 19 -6 29 9 11 7 14 -9 12 -22 -1 -27 -12 -11
-22 18 -11 11 -35 -10 -35 -13 0 -25 11 -34 33 l-14 32 -12 -34 c-11 -28 -14
-31 -22 -17 -5 9 -14 13 -21 9 -8 -4 -7 -1 1 9 17 21 9 25 -60 27 l-58 2 -1
-53 c0 -38 -3 -47 -9 -33 -4 11 -6 31 -3 45 6 25 6 25 -14 5 -18 -18 -19 -22
-5 -45 l14 -25 -19 23 c-11 13 -25 21 -34 17 -9 -3 -25 5 -38 19 -13 14 -28
23 -33 20 -5 -3 -7 0 -6 8 2 7 -8 14 -23 16 -18 2 -29 -4 -39 -22 -7 -14 -24
-33 -38 -42 -19 -13 -22 -18 -11 -25 10 -6 11 -9 2 -9 -7 0 -13 -6 -13 -13 0
-18 34 -49 43 -40 4 3 7 -1 7 -10 0 -9 9 -22 20 -29 11 -7 20 -17 20 -22 0 -4
-7 -3 -15 4 -8 6 -20 8 -27 4 -7 -4 -10 -4 -6 1 4 4 -8 26 -28 47 -26 29 -32
43 -25 52 7 9 7 16 -1 24 -9 9 -8 15 3 24 8 7 23 23 33 35 l18 22 -45 -1 c-25
0 -51 -5 -58 -10 -10 -7 -9 -8 6 -3 16 5 18 4 8 -6 -17 -17 -16 -24 3 -43 29
-29 25 -68 -10 -96 -21 -16 -26 -18 -14 -5 9 11 21 32 26 46 8 21 7 29 -9 42
-10 10 -23 16 -27 16 -4 -1 -10 0 -14 1 -5 1 -12 4 -18 5 -5 1 -11 3 -12 5
-11 8 -45 7 -58 -3 -13 -10 -13 -10 -2 5 24 31 -6 48 -83 48 -62 0 -67 -1 -62
-20 3 -11 2 -18 -3 -15 -8 5 -20 -18 -20 -38 0 -7 4 -6 10 3 8 12 10 11 10 -5
0 -25 37 -58 53 -48 7 4 6 -1 -2 -11 -23 -28 2 -43 28 -17 12 12 21 17 21 12
0 -5 -7 -16 -15 -25 -20 -19 -19 -33 3 -45 9 -6 14 -11 9 -11 -4 0 2 -17 13
-37 11 -21 20 -49 20 -62 l0 -25 20 22 c25 26 25 33 3 26 -14 -5 -15 -4 -4 4
13 9 41 6 41 -5 0 -2 -4 -13 -10 -23 -7 -14 -6 -20 7 -25 15 -5 15 -7 3 -15
-12 -8 -11 -10 5 -10 11 0 15 -4 10 -8 -14 -10 -13 -28 3 -44 11 -11 12 -9 7
7 -7 20 -6 20 9 1 19 -24 21 -40 4 -30 -10 5 -9 3 0 -7 11 -12 20 -7 58 33 24
26 44 44 44 39 0 -4 -18 -25 -40 -46 -46 -45 -48 -56 -20 -110 11 -22 25 -57
31 -78 8 -29 14 -37 26 -33 13 5 14 4 4 -8 -10 -12 -9 -27 4 -71 30 -105 32
-287 3 -269 -8 5 -9 -13 -5 -64 4 -38 8 -76 10 -84 2 -7 2 -10 0 -6 -2 4 -13
-2 -24 -13 -22 -22 -25 -34 -6 -23 9 6 9 4 0 -7 -20 -21 -15 -36 15 -44 42
-10 100 -52 116 -83 15 -29 19 -135 5 -127 -4 3 -10 28 -14 55 -4 27 -11 52
-16 56 -5 3 -9 16 -9 30 0 18 -5 24 -21 24 -12 0 -27 7 -33 15 -6 8 -21 17
-33 19 -20 4 -22 -1 -29 -52 -4 -35 -2 -81 6 -121 14 -69 15 -111 4 -174 -7
-45 -97 -148 -154 -177 -39 -20 -161 -40 -192 -32 -31 8 -20 31 22 43 48 15
69 34 38 36 -30 3 -32 9 -10 37 10 14 22 23 25 19 4 -3 12 6 18 21 7 14 19 26
27 26 9 0 12 3 9 7 -4 3 -1 13 5 21 10 12 9 14 -7 10 -11 -2 -19 -10 -17 -16
1 -7 -4 -12 -11 -12 -8 0 -22 -9 -32 -20 -41 -45 -122 -58 -179 -28 -13 7 -16
7 -12 -1 5 -7 -2 -11 -18 -11 -14 0 -27 4 -30 9 -3 5 -21 12 -40 15 -22 4 -45
19 -64 42 -20 23 -35 33 -44 28 -7 -4 -10 -4 -6 1 4 4 -4 16 -17 27 -14 11
-25 26 -25 33 0 7 -6 20 -13 27 -14 14 -47 91 -47 109 0 6 5 7 10 4 6 -3 10
-1 10 4 0 6 -4 11 -9 11 -5 0 -14 23 -21 50 -11 46 -30 77 -30 50 0 -6 -5 -8
-10 -5 -6 4 -8 11 -5 16 4 5 3 15 -2 22 -4 6 -8 17 -9 24 -1 7 -10 35 -19 63
-9 27 -14 56 -12 63 3 6 6 2 6 -10 1 -13 7 -23 15 -23 8 0 16 -4 18 -9 2 -5
17 -11 33 -12 22 -3 29 0 27 11 -1 10 3 8 13 -5 9 -11 22 -19 29 -17 8 1 16
-4 19 -12 4 -9 14 -12 28 -9 19 5 20 4 10 -15 -6 -11 -11 -41 -11 -66 0 -34
-4 -46 -15 -46 -8 0 -15 -6 -15 -14 0 -13 4 -13 26 -1 24 12 29 12 43 -6 16
-20 18 -20 61 -5 25 9 53 16 63 16 9 0 17 5 17 11 0 13 25 39 38 39 5 0 15 7
22 15 19 22 -7 20 -47 -5 -32 -19 -34 -19 -80 -1 -27 10 -48 23 -48 27 1 29
18 102 28 122 8 16 8 34 1 62 -9 32 -8 46 7 77 11 23 18 31 19 19 0 -15 6 -17
34 -14 33 4 34 4 29 -33 -5 -34 -2 -39 26 -54 37 -19 62 -13 95 20 14 13 37
27 53 30 15 4 37 10 48 15 18 7 18 9 -10 20 -16 6 -43 9 -59 6 -47 -10 -77 26
-33 39 44 13 207 87 207 94 0 4 -24 15 -52 26 -29 10 -71 27 -93 38 -22 11
-92 33 -155 49 l-115 28 70 -5 c39 -2 95 -9 125 -15 30 -6 71 -13 90 -15 19
-1 40 -3 45 -4 6 -1 3 -6 -5 -12 -12 -9 -11 -10 8 -6 15 3 22 0 22 -9 0 -8 7
-14 17 -14 9 0 13 -3 10 -7 -7 -6 21 -32 36 -33 4 0 7 8 7 18 0 10 3 13 8 6 4
-6 16 -16 27 -22 17 -9 20 -7 20 13 0 13 -3 21 -7 18 -5 -2 -8 5 -8 16 0 15
-6 21 -22 21 -21 0 -21 0 -2 -22 15 -17 10 -16 -21 7 -49 36 -55 44 -54 75 1
14 -3 45 -9 70 -13 52 -10 59 8 25 8 -14 22 -25 34 -25 17 0 18 -2 6 -10 -24
-16 8 -65 43 -65 15 -1 27 0 27 0 0 1 -7 24 -15 51 -9 32 -26 58 -47 76 -18
15 -46 38 -61 50 -16 14 -29 35 -31 54 -4 34 -26 74 -39 74 -4 0 -5 4 -2 10 3
6 -1 7 -10 4 -12 -5 -13 -9 -3 -21 10 -12 9 -14 -3 -13 -34 5 -51 0 -45 -15 4
-10 -1 -15 -14 -15 -11 0 -20 -4 -20 -9 0 -5 -7 -12 -16 -15 -21 -8 -57 32
-51 56 3 10 1 21 -4 24 -5 3 -5 13 1 24 5 10 7 25 4 33 -3 8 0 18 7 23 7 4 10
3 6 -4 -11 -16 4 -44 19 -38 8 3 14 2 14 -2 0 -4 16 -8 35 -10 29 -2 37 2 44
20 7 18 4 25 -10 30 -11 4 -22 21 -25 37 -4 20 -11 28 -20 24 -8 -3 -14 0 -14
6 0 6 5 11 11 11 8 0 8 4 -1 15 -6 8 -8 20 -4 26 4 7 3 9 -3 6 -6 -4 -18 2
-28 13 -17 19 -41 18 -29 -1 3 -5 1 -15 -4 -22 -5 -7 -12 -21 -16 -32 -3 -11
-4 -3 -1 17 2 21 -1 40 -6 43 -5 4 -9 20 -9 37 0 31 0 31 -18 12 -53 -60 -80
-124 -53 -124 5 0 12 -9 16 -19 3 -11 18 -27 32 -36 25 -17 26 -17 19 1 -4 10
-4 15 0 11 13 -13 34 15 35 47 0 26 2 28 9 11 7 -18 8 -19 15 -2 4 9 14 17 22
17 11 0 13 -5 8 -17 -4 -10 -8 -24 -8 -31 0 -7 -6 -11 -13 -8 -14 6 -59 -59
-50 -72 3 -5 -7 -14 -22 -21 -24 -10 -25 -10 -9 2 21 17 23 39 2 35 -8 -2 -27
11 -41 27 -14 17 -23 25 -20 20 2 -6 2 -16 -2 -22 -5 -7 -11 -3 -19 13 -6 13
-7 22 -2 18 5 -3 9 -1 9 4 0 5 -10 13 -22 17 -18 5 -19 8 -8 12 33 13 30 36
-10 87 -14 18 -13 19 2 13 12 -4 15 -2 11 9 -7 19 -19 18 -27 -2 -3 -9 5 -30
20 -50 15 -19 22 -34 16 -34 -6 0 -14 5 -17 10 -3 6 -12 10 -18 10 -8 0 -8 -3
2 -9 9 -6 10 -11 2 -15 -6 -4 -11 -4 -12 1 -3 31 -10 49 -27 66 -23 22 -46 14
-39 -14 3 -11 1 -19 -4 -19 -5 0 -9 -7 -9 -16 0 -8 -4 -13 -8 -10 -5 3 -15
-10 -23 -28 -15 -33 -15 -33 21 -63 31 -27 38 -29 54 -18 11 8 15 19 10 26 -4
8 -3 10 5 5 7 -5 13 3 17 23 5 23 9 27 19 18 17 -16 8 -43 -21 -62 -14 -9 -22
-20 -19 -25 3 -6 -1 -7 -9 -4 -13 5 -13 2 -3 -20 7 -14 17 -25 22 -24 15 2 45
-13 45 -22 0 -4 -19 -6 -42 -3 -54 5 -108 -25 -108 -60 0 -13 6 -24 13 -24 9
0 12 9 9 23 -5 29 28 44 99 44 37 0 49 -4 49 -15 0 -13 -4 -14 -21 -4 -29 15
-110 3 -103 -16 4 -10 12 -11 34 -3 40 13 65 -2 64 -40 -1 -37 -24 -62 -59
-62 -14 0 -42 -7 -62 -15 -45 -19 -43 -19 -42 8 0 12 3 16 6 10 7 -19 21 -16
33 6 13 25 2 54 -18 46 -8 -3 -19 0 -24 7 -6 10 -8 9 -8 -4 0 -9 -8 -23 -18
-30 -11 -7 -25 -24 -32 -38 -25 -47 -21 -3 5 55 l25 58 -26 28 c-16 17 -23 32
-19 40 6 8 4 10 -5 4 -10 -6 -12 -4 -7 8 5 14 3 15 -21 4 -15 -7 -35 -20 -44
-29 -21 -21 -57 -26 -40 -5 8 10 2 12 -29 9 -21 -2 -39 -6 -39 -8 0 -2 17 -19
38 -38 l37 -35 44 45 c31 32 46 42 52 33 4 -7 5 -19 2 -26 -4 -11 -8 -12 -13
-3 -5 9 -9 9 -14 1 -4 -6 0 -14 8 -17 9 -3 16 -10 16 -15 0 -6 -8 -6 -18 0
-23 12 -43 -4 -35 -28 4 -13 3 -14 -5 -2 -8 11 -14 12 -24 4 -10 -9 -26 1 -68
40 -30 28 -49 47 -42 43 6 -4 12 -4 12 0 0 9 -49 54 -59 54 -4 0 -12 10 -18
22 l-10 22 -26 -28 c-15 -16 -27 -24 -27 -18 0 6 13 24 30 40 25 26 30 27 35
13 3 -10 21 -32 40 -51 l34 -33 5 24 c11 47 14 154 5 165 -6 7 -20 10 -32 7
-22 -5 -22 -5 -2 10 17 13 21 13 32 -2 11 -14 12 -12 13 16 0 31 -10 37 -37
20 -6 -4 -15 -3 -18 3 -5 8 -12 7 -23 -2 -10 -7 -14 -9 -10 -4 9 11 -10 48
-22 41 -4 -3 -6 5 -3 17 4 17 -6 10 -41 -27 -25 -27 -46 -44 -46 -37 0 7 18
32 39 55 38 41 39 44 21 55 -12 7 -56 12 -106 12 l-87 0 19 -22 19 -23 -26 23
c-19 17 -38 22 -76 22 l-51 0 -4 -50 c-1 -28 0 -62 4 -75 3 -14 3 -25 -2 -25
-4 0 -4 -16 0 -35 8 -34 7 -36 -21 -42 l-30 -6 22 -23 c18 -19 25 -22 38 -12
13 10 14 10 4 -1 -16 -18 -7 -39 35 -83 20 -21 33 -40 30 -43 -3 -3 -21 11
-39 32 -25 27 -42 38 -61 37 -15 -1 -25 3 -22 7 3 5 14 9 25 9 27 0 24 9 -19
49 -21 20 -41 44 -45 54 -3 9 -11 17 -17 17 -6 0 -8 -4 -5 -10 3 -5 -1 -20 -9
-32 -18 -26 -21 -12 -6 28 10 24 8 30 -17 50 -24 19 -26 25 -14 36 8 7 11 8 8
2 -9 -16 35 -55 51 -45 16 10 13 153 -4 158 -6 2 -25 -14 -42 -36z m1648 9 c0
-5 -5 -10 -11 -10 -5 0 -7 5 -4 10 3 6 8 10 11 10 2 0 4 -4 4 -10z m-255 -78
c-6 -6 -44 39 -45 53 0 6 11 -3 25 -19 14 -16 23 -31 20 -34z m786 25 c-1 -12
-15 -9 -19 4 -3 6 1 10 8 8 6 -3 11 -8 11 -12z m-986 -67 c10 -11 14 -20 9
-20 -5 0 -15 9 -22 20 -7 11 -11 20 -9 20 2 0 12 -9 22 -20z m-803 -22 c-7 -7
-12 -8 -12 -2 0 14 12 26 19 19 2 -3 -1 -11 -7 -17z m1073 -8 c10 -11 16 -20
13 -20 -3 0 -13 9 -23 20 -10 11 -16 20 -13 20 3 0 13 -9 23 -20z m-931 -2
c-13 -23 -37 -48 -46 -48 -5 0 0 14 12 30 20 29 49 43 34 18z m-304 -1 c0 -2
-12 -14 -27 -28 l-28 -24 24 28 c23 25 31 32 31 24z m215 -27 c16 -16 26 -32
24 -35 -3 -2 -21 11 -39 30 -19 19 -29 35 -24 35 6 0 23 -13 39 -30z m1595 8
c0 -18 -2 -20 -9 -8 -6 8 -7 18 -5 22 9 14 14 9 14 -14z m-470 -2 c0 -2 -8
-10 -17 -17 -16 -13 -17 -12 -4 4 13 16 21 21 21 13z m-1249 -35 c20 23 20 23
-1 -9 -12 -18 -23 -32 -24 -30 0 2 -14 19 -31 38 l-30 35 32 -29 32 -29 22 24z
m1477 -28 c14 -12 31 -19 36 -16 6 3 8 2 3 -2 -4 -5 3 -19 15 -32 12 -13 17
-23 12 -23 -6 0 -25 16 -44 35 -18 19 -37 32 -42 29 -4 -3 -8 2 -8 10 0 27
-17 18 -65 -36 -46 -51 -46 -51 -14 -8 45 62 73 89 78 76 2 -6 16 -21 29 -33z
m-1801 7 c1 -11 -2 -22 -6 -24 -6 -4 -7 26 -2 42 3 8 7 -1 8 -18z m1901 -6
c-14 -14 -16 -14 -21 0 -4 10 -1 13 9 9 7 -3 14 1 14 8 0 7 3 9 7 5 4 -3 0
-13 -9 -22z m-1539 -72 c17 -12 31 -28 31 -34 0 -7 -19 7 -43 30 -24 23 -47
39 -52 35 -5 -5 -3 0 5 10 13 18 14 18 21 0 4 -10 21 -28 38 -41z m643 14 c7
4 8 2 4 -4 -4 -7 -3 -12 3 -12 5 0 12 4 15 9 6 8 46 22 46 16 0 -2 -14 -11
-31 -19 -33 -16 -60 -8 -58 18 0 7 2 6 6 -2 2 -6 10 -9 15 -6z m-591 -29 c-10
-9 -11 -8 -5 6 3 10 9 15 12 12 3 -3 0 -11 -7 -18z m-334 -76 c-1 -3 16 -23
36 -43 21 -20 39 -38 41 -40 2 -2 10 3 19 10 13 11 18 10 30 -10 14 -21 35
-190 39 -310 1 -26 5 -45 10 -42 4 3 8 1 8 -5 0 -5 -4 -11 -10 -13 -5 -1 -10
-57 -11 -123 -1 -66 -7 -142 -14 -170 -8 -31 -10 -54 -4 -60 5 -5 9 -14 9 -19
0 -6 -5 -5 -11 1 -9 9 -18 9 -38 -1 -14 -7 -33 -12 -41 -10 -8 2 -28 7 -45 10
l-30 7 25 -29 c13 -16 4 -10 -21 14 -25 23 -49 39 -53 35 -4 -4 -4 1 0 11 5
12 2 23 -7 30 -31 25 -64 68 -49 64 8 -2 23 -13 33 -25 22 -27 42 -31 32 -5
-12 27 -22 122 -13 122 16 0 7 20 -9 21 -11 0 -13 3 -5 6 20 8 14 22 -23 54
-19 17 -35 36 -35 42 0 6 15 -4 33 -21 18 -18 36 -29 40 -26 4 4 7 0 7 -9 0
-18 57 -87 72 -87 5 0 18 -10 27 -22 31 -37 52 -18 50 47 -2 48 -7 60 -39 96
-25 28 -42 39 -50 34 -10 -6 -12 -4 -7 10 9 21 -62 104 -83 97 -10 -4 -10 -1
1 10 12 14 18 11 48 -24 18 -21 39 -37 45 -35 6 3 12 -7 13 -21 0 -14 18 -41
41 -64 l39 -40 1 116 c0 64 -3 116 -8 116 -4 0 -6 -8 -3 -19 3 -10 0 -22 -5
-25 -6 -3 -8 2 -6 11 3 12 -11 34 -41 63 -25 24 -45 38 -45 30 0 -7 -2 -11 -5
-8 -8 7 5 38 16 38 5 0 9 -6 9 -13 0 -7 15 -28 33 -45 45 -44 59 -28 51 54 -8
93 -12 104 -32 98 -14 -5 -15 -4 -2 5 12 9 8 17 -29 55 -27 28 -50 43 -60 39
-12 -3 -11 -2 2 7 17 11 15 15 -22 47 -23 19 -41 40 -41 46 0 6 20 -8 44 -32
25 -24 44 -47 43 -50z m1075 19 c25 -37 23 -61 -4 -44 -7 4 -8 3 -4 -5 4 -6 3
-18 -4 -26 -8 -10 -8 -18 2 -34 19 -30 -1 -44 -69 -47 -32 -1 -71 -7 -86 -13
-37 -14 -37 -14 -37 9 0 12 6 20 13 18 7 -2 24 6 37 17 19 15 24 28 22 49 -3
26 -2 28 11 17 22 -18 60 24 54 61 -3 26 4 36 28 37 6 0 22 -17 37 -39z m-747
11 c-3 -6 -11 -11 -16 -11 -5 0 -4 6 3 14 14 16 24 13 13 -3z m-122 -61 c15
-12 27 -27 27 -33 0 -7 -18 7 -40 30 -22 23 -40 38 -40 34 0 -5 -7 -12 -15
-15 -13 -5 -12 -1 2 18 17 23 19 23 28 6 6 -10 22 -28 38 -40z m267 40 c0 -11
-7 -20 -15 -20 -8 0 -15 -6 -16 -12 0 -9 -2 -10 -5 -1 -3 6 3 21 13 32 22 26
23 26 23 1z m-86 -33 c10 -10 16 -20 14 -22 -4 -4 -68 53 -68 61 0 7 26 -12
54 -39z m-96 13 c-7 -11 -17 -20 -22 -20 -5 0 -1 9 9 20 10 11 20 20 22 20 2
0 -2 -9 -9 -20z m1367 -20 c10 -11 16 -20 13 -20 -3 0 -13 9 -23 20 -10 11
-16 20 -13 20 3 0 13 -9 23 -20z m-1055 -25 c-1 -4 10 -19 25 -35 20 -21 24
-30 13 -36 -7 -4 -10 -4 -6 1 8 8 -29 40 -47 40 -5 0 -25 -15 -42 -34 -47 -50
-40 -25 8 32 36 42 55 54 49 32z m-120 -82 c21 -19 22 -22 8 -23 -10 0 -18 5
-18 11 0 6 -7 8 -17 5 -10 -4 -14 -4 -10 0 12 12 -25 63 -42 56 -13 -5 -14 -4
-1 10 13 13 17 12 35 -11 11 -14 31 -36 45 -48z m-569 14 c-10 -9 -11 -8 -5 6
3 10 9 15 12 12 3 -3 0 -11 -7 -18z m919 -30 c0 -5 -4 -5 -10 -2 -5 3 -10 14
-10 23 0 15 2 15 10 2 5 -8 10 -19 10 -23z m-845 -45 c-7 -8 -64 42 -64 57 -1
9 13 1 34 -19 19 -18 33 -36 30 -38z m1645 55 c0 -2 -10 -12 -22 -23 l-23 -19
19 23 c18 21 26 27 26 19z m-1310 -28 c0 -6 -4 -7 -10 -4 -5 3 -10 11 -10 16
0 6 5 7 10 4 6 -3 10 -11 10 -16z m200 -9 c0 -6 -7 -13 -15 -16 -8 -4 -12 -11
-8 -17 3 -6 1 -7 -5 -3 -9 5 -8 12 1 26 13 22 27 26 27 10z m-189 -23 c-10 -9
-11 -8 -5 6 3 10 9 15 12 12 3 -3 0 -11 -7 -18z m-407 -109 c-10 -16 -19 -7
-20 20 0 15 -4 43 -8 62 -4 22 0 14 13 -20 11 -30 17 -58 15 -62z m650 73 c10
-11 24 -18 30 -14 6 3 5 0 -2 -8 -10 -11 -19 -7 -50 25 -21 21 -28 34 -17 28
11 -6 29 -19 39 -31z m-184 -12 c22 -23 40 -46 40 -52 0 -19 73 -78 89 -72 11
5 12 3 1 -10 -7 -9 -16 -12 -19 -8 -3 4 -25 25 -48 45 -23 20 -39 39 -35 42 3
4 -14 27 -38 51 -24 25 -41 45 -37 45 4 0 25 -19 47 -41z m553 14 c-7 -2 -21
-2 -30 0 -10 3 -4 5 12 5 17 0 24 -2 18 -5z m672 -13 c10 -11 16 -20 13 -20
-3 0 -13 9 -23 20 -10 11 -16 20 -13 20 3 0 13 -9 23 -20z m-1031 -71 c-20
-16 -39 -29 -41 -29 -11 0 34 49 45 50 6 0 12 5 12 11 0 5 5 7 10 4 6 -4 -5
-19 -26 -36z m1115 -11 c0 -7 -14 -24 -32 -38 l-32 -25 30 37 c34 42 35 42 34
26z m92 -117 c-7 -12 -4 -16 14 -17 17 -1 22 2 18 14 -4 10 -2 13 5 8 7 -4 12
-15 12 -24 0 -9 19 -34 42 -54 24 -21 40 -38 35 -38 -4 0 -28 19 -52 41 -25
23 -51 39 -58 36 -8 -3 -20 -1 -28 4 -11 7 -11 12 -2 26 9 15 5 25 -25 58
l-37 40 42 -39 c31 -29 40 -43 34 -55z m-1369 -56 c6 -11 -10 0 -36 25 -25 24
-46 47 -46 51 0 12 71 -54 82 -76z m-460 30 c3 -14 1 -28 -3 -31 -5 -3 -9 9
-9 25 0 38 6 40 12 6z m1798 -38 c0 -2 -12 -14 -27 -28 l-28 -24 24 28 c23 25
31 32 31 24z m-79 -44 c13 -16 12 -17 -3 -4 -10 7 -18 15 -18 17 0 8 8 3 21
-13z m-1176 -44 c20 -22 20 -22 0 -11 -11 5 -29 20 -40 33 -20 22 -20 22 0 11
11 -5 29 -20 40 -33z m1673 -2 c8 -10 6 -13 -8 -14 -13 -1 -17 3 -13 13 6 17
8 17 21 1z m172 -7 c0 -5 -8 -10 -17 -10 -15 0 -16 2 -3 10 19 12 20 12 20 0z
m-1819 -43 c-10 -9 -11 -8 -5 6 3 10 9 15 12 12 3 -3 0 -11 -7 -18z m1814 3
c3 -5 3 -15 0 -20 -7 -12 -45 5 -45 20 0 13 37 13 45 0z m-1760 -50 c21 -22
37 -40 34 -40 -3 0 -23 18 -44 40 -21 22 -37 40 -34 40 3 0 23 -18 44 -40z
m1206 23 c13 -16 12 -17 -3 -4 -17 13 -22 21 -14 21 2 0 10 -8 17 -17z m520
-28 c5 4 9 -1 9 -9 0 -19 -11 -21 -28 -4 -9 9 -12 9 -12 0 0 -6 -7 -9 -15 -6
-12 5 -11 10 7 30 22 22 23 22 26 3 2 -10 8 -17 13 -14z m-2086 5 c10 -11 16
-20 13 -20 -3 0 -13 9 -23 20 -10 11 -16 20 -13 20 3 0 13 -9 23 -20z m1598
-19 c3 -13 1 -18 -9 -14 -7 2 -10 11 -7 19 7 19 10 18 16 -5z m-33 -24 c0 -2
-15 -16 -32 -33 l-33 -29 29 33 c28 30 36 37 36 29z m-145 -27 c10 -11 16 -20
13 -20 -3 0 -13 9 -23 20 -10 11 -16 20 -13 20 3 0 13 -9 23 -20z m256 -27
c13 -16 12 -17 -3 -4 -10 7 -18 15 -18 17 0 8 8 3 21 -13z m-1188 -52 c-2 -3
-18 10 -36 29 l-32 34 36 -30 c20 -16 34 -31 32 -33z m-202 22 c13 -16 12 -17
-3 -4 -10 7 -18 15 -18 17 0 8 8 3 21 -13z m1464 -53 c10 -11 16 -20 13 -20
-3 0 -13 9 -23 20 -10 11 -16 20 -13 20 3 0 13 -9 23 -20z m275 -25 c13 -14
21 -25 18 -25 -2 0 -15 11 -28 25 -13 14 -21 25 -18 25 2 0 15 -11 28 -25z
m-2160 -40 c19 -19 32 -35 29 -35 -3 0 -20 16 -39 35 -19 19 -32 35 -29 35 3
0 20 -16 39 -35z m686 -20 c3 -31 1 -35 -11 -25 -8 6 -12 17 -9 25 3 7 1 16
-5 19 -6 4 -7 14 -4 22 9 24 25 1 29 -41z m1045 -18 c-10 -9 -11 -8 -5 6 3 10
9 15 12 12 3 -3 0 -11 -7 -18z m483 7 c3 -8 2 -12 -4 -9 -6 3 -10 10 -10 16 0
14 7 11 14 -7z m-74 -47 c0 -2 -10 -12 -22 -23 l-23 -19 19 23 c18 21 26 27
26 19z m-99 -24 c13 -16 12 -17 -3 -4 -17 13 -22 21 -14 21 2 0 10 -8 17 -17z
m52 -63 c3 -12 1 -17 -5 -14 -5 3 -19 -2 -31 -13 -18 -15 -18 -13 3 14 14 18
26 32 26 32 1 1 4 -8 7 -19z m-2262 -37 c13 -16 12 -17 -3 -4 -10 7 -18 15
-18 17 0 8 8 3 21 -13z m1892 -173 c43 -78 43 -84 -5 -106 -23 -10 -69 -36
-100 -56 -32 -21 -58 -34 -58 -31 0 4 -12 -8 -28 -26 l-27 -33 -23 31 c-12 17
-17 28 -10 26 19 -7 40 32 30 53 -5 9 -6 28 -1 42 6 23 7 23 8 3 2 -43 21 -35
21 9 0 34 6 49 28 70 15 14 43 62 62 107 l34 81 22 -63 c12 -34 33 -82 47
-107z m497 80 c0 -5 -5 -10 -11 -10 -5 0 -7 5 -4 10 3 6 8 10 11 10 2 0 4 -4
4 -10z m-1613 -17 c-4 -3 -1 -13 6 -21 10 -13 9 -14 -2 -8 -9 6 -12 5 -9 -5 3
-8 11 -13 17 -11 8 1 9 -2 4 -10 -4 -7 -8 -32 -9 -55 l-1 -42 28 21 c19 15 30
33 34 62 4 23 11 48 16 56 15 27 11 -22 -7 -73 -12 -37 -13 -51 -4 -62 8 -10
8 -19 1 -34 -6 -11 -11 -29 -11 -39 0 -11 -13 -35 -29 -54 -16 -18 -38 -44
-48 -56 l-19 -24 -81 66 c-45 36 -84 70 -87 74 -3 5 11 37 31 70 l37 62 21
-20 21 -20 42 65 c23 36 44 65 48 65 4 0 4 -3 1 -7z m-393 -69 c3 -8 2 -12 -4
-9 -6 3 -10 10 -10 16 0 14 7 11 14 -7z m-88 -33 c-1 -22 -26 -66 -26 -45 0 3
-7 1 -15 -6 -12 -10 -15 -10 -15 4 0 23 -31 20 -37 -4 -6 -22 -11 -24 -33 -10
-13 8 -12 10 4 10 15 0 16 3 6 15 -10 13 -9 15 8 15 12 0 24 5 28 11 3 6 15 9
25 6 18 -5 44 15 34 25 -3 2 1 5 9 5 8 0 13 -10 12 -26z m941 13 c-3 -3 -12
-4 -19 -1 -8 3 -5 6 6 6 11 1 17 -2 13 -5z m10 -20 c-3 -3 -12 -4 -19 -1 -8 3
-5 6 6 6 11 1 17 -2 13 -5z m436 -9 c-3 -9 -8 -14 -10 -11 -3 3 -2 9 2 15 9
16 15 13 8 -4z m-1319 -31 c5 -14 4 -15 -9 -4 -17 14 -19 20 -6 20 5 0 12 -7
15 -16z m-98 -96 l29 -33 -32 29 c-31 28 -38 36 -30 36 2 0 16 -15 33 -32z
m1359 -75 c-2 -7 1 -13 8 -13 8 0 7 -4 -3 -9 -17 -12 -33 -4 -24 11 4 6 2 8
-4 4 -16 -10 -25 12 -17 42 l7 27 19 -25 c10 -14 17 -31 14 -37z m-662 10 c-6
-15 -4 -16 9 -5 19 16 33 1 43 -47 l7 -33 -37 40 c-20 23 -34 46 -30 52 10 16
15 12 8 -7z m-793 -18 c13 -14 21 -25 18 -25 -2 0 -15 11 -28 25 -13 14 -21
25 -18 25 2 0 15 -11 28 -25z m1040 -36 c0 -16 -4 -28 -9 -25 -8 5 -3 56 5 56
2 0 4 -14 4 -31z m110 -20 c0 -18 -6 -32 -16 -36 -30 -11 -38 30 -11 64 14 19
27 6 27 -28z m-959 14 c13 -16 12 -17 -3 -4 -17 13 -22 21 -14 21 2 0 10 -8
17 -17z m995 -47 c0 -14 -6 -22 -13 -19 -9 4 -9 9 0 24 15 24 15 24 13 -5z
m-1275 -3 c13 -16 12 -17 -3 -4 -10 7 -18 15 -18 17 0 8 8 3 21 -13z m969 -5
c0 -16 -3 -19 -11 -11 -6 6 -8 16 -5 22 11 17 16 13 16 -11z m232 -20 c43 -18
72 -48 46 -48 -22 0 -127 53 -132 67 -7 17 10 13 86 -19z m-1167 -18 c10 -11
16 -20 13 -20 -3 0 -13 9 -23 20 -10 11 -16 20 -13 20 3 0 13 -9 23 -20z m969
-6 c9 -23 7 -36 -3 -30 -12 8 -21 46 -11 46 4 0 11 -7 14 -16z m-893 -101 c13
-16 12 -17 -3 -4 -10 7 -18 15 -18 17 0 8 8 3 21 -13z"/>
<path d="M106 1367 c3 -10 9 -15 12 -12 3 3 0 11 -7 18 -10 9 -11 8 -5 -6z"/>
<path d="M836 685 c16 -14 34 -25 39 -25 12 0 -46 49 -59 50 -5 0 4 -11 20
-25z"/>
<path d="M1045 550 c-3 -5 -1 -10 4 -10 6 0 11 5 11 10 0 6 -2 10 -4 10 -3 0
-8 -4 -11 -10z"/>
<path d="M540 2555 c0 -17 26 -54 50 -70 16 -11 26 -24 23 -30 -4 -5 3 -1 15
9 12 11 22 27 22 36 0 9 6 22 12 28 10 10 10 15 -2 22 -15 10 -120 14 -120 5z"/>
<path d="M755 2543 c-6 -18 24 -51 43 -47 7 1 8 0 2 -3 -5 -2 -8 -9 -4 -14 14
-24 -18 -5 -46 27 -17 20 -34 33 -38 29 -4 -4 -1 -10 6 -12 6 -3 9 -9 6 -14
-4 -6 -11 -6 -19 1 -15 13 -18 5 -29 -75 -4 -31 -1 -44 15 -61 l21 -22 50 52
50 53 26 -24 c20 -18 28 -21 34 -11 6 9 8 7 6 -7 -2 -11 2 -19 9 -18 7 2 10
-4 7 -12 -4 -8 -1 -15 6 -15 6 0 8 -5 4 -11 -4 -7 -18 1 -38 20 -18 17 -37 31
-44 31 -6 0 -9 7 -5 16 3 9 -5 5 -19 -9 -14 -14 -28 -32 -31 -40 -3 -8 -20
-25 -38 -38 -18 -12 -30 -18 -26 -12 4 6 -3 19 -15 29 -21 19 -21 19 -15 0 4
-10 2 -25 -4 -32 -7 -8 -9 -31 -6 -53 3 -22 0 -44 -6 -50 -6 -6 -8 -13 -4 -17
5 -6 147 16 147 22 0 2 -17 19 -37 39 l-38 35 -22 -25 c-23 -26 -33 -31 -33
-17 0 10 54 72 63 72 4 0 7 -6 7 -13 0 -16 62 -77 78 -77 7 0 12 6 12 13 0 7
13 27 29 44 16 18 26 35 22 39 -3 4 0 4 7 0 7 -4 15 -1 18 8 3 9 11 13 18 9 6
-3 6 -1 -1 8 -7 7 -13 27 -12 44 0 24 2 26 8 11 7 -18 8 -18 14 -3 3 9 3 25 0
35 -5 14 -4 15 8 6 11 -8 22 -6 46 11 18 12 29 26 25 30 -4 5 -1 5 6 1 10 -6
10 -11 2 -21 -7 -8 -7 -15 -1 -19 5 -4 12 -3 14 1 7 12 5 66 -2 57 -6 -10 -23
-15 -58 -19 -15 -2 -20 1 -16 11 4 10 0 12 -13 7 -13 -5 -15 -3 -9 7 6 10 2
11 -21 6 -16 -4 -32 -13 -36 -19 -6 -9 -8 -9 -8 0 0 7 9 17 20 23 11 6 18 15
15 21 -4 5 -18 -4 -32 -21 -24 -29 -53 -40 -53 -20 0 6 6 10 13 10 9 0 8 3 -2
9 -11 7 -10 11 5 19 15 8 9 10 -28 10 -33 0 -48 -4 -53 -15z"/>
<path d="M971 2547 c-8 -10 -7 -14 4 -14 8 0 15 6 15 14 0 7 -2 13 -4 13 -2 0
-9 -6 -15 -13z"/>
<path d="M1000 2556 c0 -2 7 -7 16 -10 8 -3 12 -2 9 4 -6 10 -25 14 -25 6z"/>
<path d="M1063 2546 c0 -8 6 -12 14 -9 7 3 10 9 7 14 -8 14 -21 11 -21 -5z"/>
<path d="M1143 2553 c-7 -3 -13 -9 -13 -15 0 -6 8 -5 18 3 15 13 16 12 4 -3
-8 -9 -19 -15 -26 -12 -16 6 -14 -29 3 -50 11 -13 15 -12 37 6 25 23 31 38 13
38 -5 0 -8 -4 -4 -9 3 -5 1 -12 -4 -15 -5 -3 -7 8 -6 24 3 32 -3 40 -22 33z
m1 -51 c3 -5 -1 -9 -9 -9 -8 0 -12 4 -9 9 3 4 7 8 9 8 2 0 6 -4 9 -8z"/>
<path d="M1340 2551 c0 -5 3 -16 6 -25 5 -12 9 -13 24 -3 14 8 16 15 8 24 -12
15 -38 17 -38 4z"/>
<path d="M1870 2557 c0 -3 13 -15 29 -27 21 -14 32 -17 37 -9 4 7 3 9 -3 6 -6
-4 -13 -1 -16 7 -4 11 1 13 21 10 15 -3 23 -2 20 2 -9 8 -88 18 -88 11z"/>
<path d="M2137 2545 c-4 -8 -3 -16 1 -19 4 -3 9 4 9 15 2 23 -3 25 -10 4z"/>
<path d="M2344 2535 c4 -14 2 -25 -4 -25 -5 0 -10 -4 -10 -10 0 -14 27 -1 34
16 7 18 -3 44 -16 44 -6 0 -7 -11 -4 -25z"/>
<path d="M2375 2550 c-3 -5 -1 -10 4 -10 19 0 12 -35 -9 -48 -11 -7 -20 -18
-20 -25 0 -6 -12 -23 -25 -36 -28 -26 -31 -36 -12 -48 18 -11 38 -13 31 -2 -3
5 -9 7 -13 4 -5 -2 -6 8 -2 23 5 25 6 25 9 5 3 -22 4 -22 28 -7 22 15 24 15
24 0 0 -9 -3 -15 -7 -15 -30 5 -37 -10 -20 -38 5 -7 5 -13 1 -13 -3 0 0 -8 7
-17 12 -15 12 -16 -3 -10 -20 7 -24 -3 -7 -20 12 -12 4 -33 -13 -33 -6 0 -5 7
3 17 12 15 12 16 -3 10 -12 -4 -15 -2 -12 8 5 12 1 12 -20 2 -14 -7 -21 -13
-16 -15 6 -2 10 -16 10 -32 0 -26 24 -60 32 -43 5 12 78 65 78 57 0 -3 11 1
25 10 28 18 45 21 45 6 0 -5 -3 -9 -7 -9 -35 6 -43 -35 -10 -53 12 -7 25 -12
28 -11 3 1 6 -5 6 -13 0 -19 -10 -18 -39 6 -14 10 -28 17 -31 14 -8 -9 -3 19
7 36 7 12 6 12 -4 3 -7 -6 -19 -9 -27 -6 -12 5 -11 0 3 -23 11 -15 14 -25 8
-22 -6 4 -11 0 -11 -8 0 -10 4 -11 11 -4 5 5 15 10 21 10 5 -1 -1 -10 -15 -22
-15 -13 -18 -19 -8 -15 10 3 20 2 23 -3 4 -6 1 -10 -5 -10 -7 0 -6 -5 2 -14
11 -12 15 -12 30 1 16 14 16 17 -5 34 -25 21 -19 24 18 7 29 -13 30 -17 11
-44 -10 -13 -11 -25 -5 -35 5 -8 9 -24 9 -37 0 -19 4 -22 21 -17 13 5 19 3 15
-3 -3 -5 0 -12 7 -15 8 -3 13 7 14 30 1 24 -2 31 -10 26 -7 -4 -7 0 2 10 11
14 11 18 -2 23 -9 3 -14 11 -11 18 3 7 -2 18 -10 25 -11 10 -13 18 -6 31 7 13
6 21 -4 29 -11 9 -15 9 -18 0 -2 -7 -9 -5 -18 7 -8 10 -10 15 -3 11 6 -4 15
-3 18 3 5 8 11 7 21 -1 11 -9 14 -8 14 5 0 9 -4 16 -10 16 -5 0 -10 10 -9 23
l0 22 9 -22 c5 -13 17 -23 25 -23 14 0 16 11 13 67 -2 42 -8 68 -16 71 -7 2
-10 -2 -6 -12 5 -12 2 -15 -12 -9 -11 4 -15 3 -10 -5 3 -6 -3 -13 -14 -17 -13
-4 -20 -15 -20 -31 0 -16 -5 -24 -17 -23 -11 0 -13 3 -5 6 6 2 12 9 12 15 0 7
-5 6 -14 -2 -8 -6 -12 -19 -9 -28 6 -15 5 -15 -10 -3 -19 15 -16 24 34 77 45
49 76 68 82 51 2 -7 5 23 6 66 l1 78 -64 -2 c-53 -2 -65 -5 -69 -21 -3 -10 -1
-18 4 -18 5 0 9 5 9 11 0 5 5 7 10 4 6 -3 10 -2 10 2 0 5 11 10 25 11 22 1 25
-2 25 -28 0 -21 -5 -30 -16 -30 -8 0 -13 -4 -9 -10 3 -5 13 -6 22 -3 12 5 14
3 8 -8 -8 -12 -6 -12 8 0 10 8 20 11 24 7 3 -3 1 -6 -5 -6 -7 0 -11 -6 -9 -12
1 -7 -7 -13 -18 -14 -39 -2 -44 -4 -47 -21 -3 -13 -6 -11 -9 8 -5 23 -3 26 15
21 21 -5 21 -5 2 16 -18 21 -43 31 -32 14 2 -4 -4 -13 -15 -20 -11 -7 -19 -8
-19 -2 0 5 5 10 11 10 8 0 7 5 -1 15 -11 13 -10 14 6 9 16 -6 16 -3 -5 19 -12
14 -20 30 -16 36 3 6 -1 11 -9 11 -8 0 -18 -4 -21 -10z m15 -70 c0 -5 -2 -10
-4 -10 -3 0 -8 5 -11 10 -3 6 -1 10 4 10 6 0 11 -4 11 -10z m42 -52 c-7 -7 -8
-17 -1 -30 5 -10 7 -18 3 -18 -3 0 -1 -7 6 -15 7 -8 8 -15 3 -15 -15 0 -34
-48 -23 -55 6 -4 10 -12 9 -18 0 -9 -2 -8 -6 1 -2 6 -9 10 -14 6 -12 -7 -11 9
2 43 15 36 18 63 7 63 -13 0 -9 48 5 53 17 6 23 -1 9 -15z m-72 -187 c0 -14
-29 -21 -36 -9 -4 7 -3 8 4 4 7 -4 12 -2 12 3 0 6 5 11 10 11 6 0 10 -4 10 -9z
m157 -103 c-2 -7 3 -19 12 -26 9 -8 10 -11 4 -7 -8 4 -13 0 -13 -10 0 -9 -4
-13 -10 -10 -5 3 -8 16 -6 28 3 12 5 25 5 30 1 4 4 7 7 7 3 0 4 -6 1 -12z"/>
<path d="M2455 2519 c-4 -6 -4 -13 -1 -16 3 -4 6 0 6 8 0 11 2 11 9 1 6 -10
10 -10 21 3 10 13 9 15 -8 15 -12 0 -24 -5 -27 -11z"/>
<path d="M2162 2478 c2 -7 -3 -12 -10 -10 -10 2 -12 -12 -9 -63 3 -36 10 -72
16 -79 8 -10 8 -16 -3 -25 -10 -8 -16 -9 -21 -1 -3 5 -1 10 6 10 7 0 10 3 6 6
-3 3 -11 3 -17 -1 -8 -5 -8 -11 1 -21 9 -11 15 -11 25 -3 11 9 14 8 14 -1 0
-18 49 37 61 68 6 16 6 29 -1 37 -5 6 -7 14 -4 17 2 3 -2 8 -11 12 -9 3 -13 2
-10 -3 3 -5 2 -12 -3 -15 -5 -3 -9 0 -10 7 0 7 -3 22 -6 35 -3 13 -1 20 5 17
5 -4 7 -11 3 -16 -3 -5 -2 -8 3 -7 15 5 74 -50 60 -55 -6 -3 -2 -6 9 -6 14 -1
24 7 27 20 4 16 2 19 -10 15 -9 -4 -32 7 -57 27 -55 45 -67 51 -64 35z m11
-100 c-7 -56 -13 -62 -13 -11 0 33 6 53 15 53 1 0 0 -19 -2 -42z m27 -62 c0
-2 -7 -7 -16 -10 -8 -3 -12 -2 -9 4 6 10 25 14 25 6z"/>
<path d="M6 2454 c-9 -24 -8 -25 14 -12 23 15 26 28 6 28 -8 0 -17 -7 -20 -16z"/>
<path d="M2016 2372 c-5 -9 20 -32 28 -25 3 4 6 10 6 14 0 10 -28 20 -34 11z"/>
<path d="M2294 2354 c3 -8 2 -12 -4 -9 -13 8 -13 -15 0 -35 7 -12 12 -12 34 0
18 9 23 17 16 25 -5 7 -6 16 -2 20 4 5 2 5 -5 1 -6 -3 -14 -2 -18 4 -10 16
-28 12 -21 -6z"/>
<path d="M2054 2322 c8 -23 -7 -52 -27 -52 -5 0 -3 8 6 18 10 10 14 22 11 25
-11 11 -33 -26 -29 -48 2 -11 7 -37 10 -58 3 -22 10 -35 16 -31 6 3 16 -2 24
-12 7 -11 17 -16 21 -11 4 4 2 7 -4 7 -7 0 -12 11 -12 25 0 14 4 25 10 25 5 0
7 13 5 30 -4 34 4 43 25 29 8 -5 11 -9 5 -9 -10 -1 34 -29 46 -30 4 0 10 7 13
16 3 9 2 12 -5 8 -6 -3 -25 7 -42 23 -18 16 -43 37 -56 48 l-24 20 7 -23z m6
-89 c0 -22 -2 -25 -10 -13 -13 20 -13 40 0 40 6 0 10 -12 10 -27z"/>
<path d="M2244 2313 c-4 -10 -6 -22 -5 -28 2 -5 -1 -7 -5 -2 -11 10 -44 -23
-44 -45 0 -10 7 -18 15 -18 8 0 15 -4 15 -9 0 -10 -19 -9 -37 2 -6 4 -14 3
-18 -3 -3 -5 1 -10 10 -10 8 0 20 -11 26 -24 7 -14 17 -22 24 -20 19 8 29 -14
15 -31 -9 -11 -10 -19 -1 -28 6 -8 8 -18 4 -23 -4 -5 8 6 28 24 19 17 40 32
47 32 7 0 12 4 12 9 0 10 -19 9 -36 -1 -13 -8 -13 -6 -18 92 -2 41 -4 81 -5
88 -2 18 -18 15 -27 -5z m-18 -68 c1 -8 -4 -15 -12 -15 -8 0 -14 5 -14 10 0 6
5 10 11 10 5 0 7 6 3 13 -4 6 -3 8 1 4 5 -4 10 -14 11 -22z m43 -89 c22 -27
-2 -17 -39 15 l-35 31 31 -15 c17 -9 36 -23 43 -31z m5 -35 c3 -5 -3 -11 -15
-14 -16 -4 -18 -3 -8 9 13 16 16 17 23 5z"/>
<path d="M881 2296 c-33 -35 -36 -107 -7 -135 l22 -21 37 34 c24 22 31 33 19
29 -12 -3 -19 1 -19 11 0 9 4 16 9 16 4 0 8 -4 8 -8 0 -12 48 -13 56 -1 3 6
-4 18 -16 26 -13 9 -30 25 -39 35 -30 36 -46 39 -70 14z m53 -4 c3 -5 -1 -9
-9 -9 -8 0 -12 4 -9 9 3 4 7 8 9 8 2 0 6 -4 9 -8z"/>
<path d="M2383 2224 c-3 -10 -11 -22 -17 -26 -7 -5 -7 -8 2 -8 6 0 12 -7 12
-16 0 -11 -6 -15 -20 -11 -15 4 -20 0 -20 -13 0 -11 5 -22 10 -25 6 -3 10 -15
10 -26 0 -10 5 -19 10 -19 16 0 12 40 -5 46 -19 8 -20 24 0 24 14 0 25 -40 25
-85 0 -11 0 -27 1 -35 0 -8 0 -70 -1 -137 -1 -67 1 -127 5 -132 15 -26 -14 -7
-53 32 -32 32 -41 48 -36 62 5 12 4 16 -4 11 -6 -4 -22 0 -36 9 -13 9 -27 12
-30 7 -3 -5 2 -9 11 -9 10 0 26 -12 38 -28 11 -15 41 -50 68 -76 28 -30 41
-49 32 -49 -8 0 -15 -4 -15 -10 0 -11 28 -9 49 4 9 6 17 3 23 -8 5 -9 13 -14
19 -11 5 4 9 -1 9 -9 0 -8 4 -17 9 -20 8 -5 8 15 1 34 -1 3 -2 9 -1 14 1 5 -4
4 -12 -3 -12 -9 -16 -8 -21 5 -8 22 -8 26 4 19 6 -3 10 -4 10 -1 0 3 -10 10
-21 17 -13 7 -19 7 -15 1 3 -6 2 -13 -3 -16 -5 -3 -9 44 -10 111 -2 104 0 115
13 103 9 -7 13 -17 9 -23 -3 -6 -1 -7 5 -3 12 7 59 -33 54 -47 -1 -5 2 -6 8
-2 5 3 10 2 10 -4 0 -5 -5 -11 -12 -13 -7 -3 -5 -7 6 -11 11 -5 15 -3 10 5 -5
7 -2 9 9 5 20 -7 29 14 34 82 4 45 2 53 -11 48 -8 -3 -18 -2 -21 3 -9 15 -25
12 -25 -3 0 -8 10 -19 23 -25 l22 -11 -22 0 c-13 -1 -23 -7 -23 -15 0 -20 27
-39 42 -30 10 6 11 5 1 -8 -7 -8 -9 -19 -5 -23 14 -17 -54 35 -90 68 -36 32
-37 34 -21 56 15 22 15 23 -4 17 -17 -5 -19 -2 -15 29 2 19 8 35 14 35 5 0 7
-4 4 -8 -2 -4 -1 -14 3 -21 6 -10 10 -9 14 3 4 9 -2 21 -15 30 -18 13 -22 27
-23 81 -2 69 -10 90 -22 59z m157 -298 c0 -3 -4 -8 -10 -11 -5 -3 -10 -1 -10
4 0 6 5 11 10 11 6 0 10 -2 10 -4z"/>
<path d="M2100 2205 c0 -10 -5 -13 -12 -9 -7 4 -8 3 -4 -4 7 -12 36 -5 36 8 0
5 -4 12 -10 15 -5 3 -10 -1 -10 -10z"/>
<path d="M2545 2210 c3 -5 8 -10 11 -10 2 0 4 5 4 10 0 6 -5 10 -11 10 -5 0
-7 -4 -4 -10z"/>
<path d="M1531 2184 c0 -11 3 -14 6 -6 3 7 2 16 -1 19 -3 4 -6 -2 -5 -13z"/>
<path d="M2300 2190 c0 -5 5 -10 10 -10 6 0 10 5 10 10 0 6 -4 10 -10 10 -5 0
-10 -4 -10 -10z"/>
<path d="M1986 2181 c-3 -4 3 -16 13 -25 14 -13 21 -14 27 -5 4 8 3 10 -4 5
-8 -5 -12 0 -12 13 0 21 -14 28 -24 12z"/>
<path d="M2540 2160 c13 -24 17 -25 17 -5 0 8 -6 16 -14 19 -11 4 -11 1 -3
-14z"/>
<path d="M983 2113 c-7 -2 -13 -11 -13 -19 0 -10 7 -13 25 -8 15 4 25 2 25 -5
0 -6 -11 -11 -25 -11 -16 0 -25 -6 -25 -15 0 -12 7 -14 28 -9 49 10 52 13 52
44 0 26 -3 30 -27 29 -16 0 -34 -3 -40 -6z"/>
<path d="M2055 2110 c6 -10 4 -12 -8 -7 -11 4 -14 2 -10 -9 3 -7 9 -14 13 -14
13 0 20 29 8 36 -7 5 -8 2 -3 -6z"/>
<path d="M2087 2093 c-4 -20 -2 -21 11 -11 13 11 15 10 9 -4 -3 -10 -2 -18 3
-18 6 0 10 13 10 28 0 35 -26 39 -33 5z"/>
<path d="M2310 2115 c0 -2 7 -8 15 -15 12 -10 15 -10 15 2 0 8 -7 15 -15 15
-8 0 -15 -1 -15 -2z"/>
<path d="M1460 2104 c0 -13 18 -39 24 -34 2 3 -2 14 -10 24 -8 11 -14 16 -14
10z"/>
<path d="M2307 2082 c12 -11 19 -23 15 -27 -4 -5 -2 -5 4 -2 6 4 19 -2 29 -13
10 -11 23 -20 29 -20 12 0 -50 55 -79 71 -17 9 -17 8 2 -9z"/>
<path d="M2080 2046 c0 -2 8 -10 18 -17 15 -13 16 -12 3 4 -13 16 -21 21 -21
13z"/>
<path d="M2245 2030 c-17 -18 -17 -20 -2 -14 9 3 17 11 18 18 0 6 4 2 8 -8 5
-12 10 -15 14 -9 4 6 1 16 -7 22 -10 8 -17 6 -31 -9z"/>
<path d="M2339 2027 c6 -8 7 -18 3 -22 -4 -5 -1 -5 6 -1 10 6 10 11 1 22 -6 8
-14 14 -16 14 -3 0 0 -6 6 -13z"/>
<path d="M2530 2010 c8 -5 20 -10 25 -10 6 0 3 5 -5 10 -8 5 -19 10 -25 10 -5
0 -3 -5 5 -10z"/>
<path d="M2246 2001 c-4 -7 -5 -15 -2 -18 9 -9 19 4 14 18 -4 11 -6 11 -12 0z"/>
<path d="M1982 1984 c-7 -8 -18 -11 -24 -8 -6 4 -9 3 -7 -2 3 -5 11 -21 18
-36 8 -15 20 -29 28 -32 9 -4 11 -2 6 7 -4 6 -8 17 -8 22 -1 6 -6 9 -11 8 -6
-1 -11 4 -11 12 0 8 4 12 9 9 4 -3 11 2 14 11 9 22 2 26 -14 9z"/>
<path d="M2165 1970 c3 -5 8 -10 11 -10 2 0 4 5 4 10 0 6 -5 10 -11 10 -5 0
-7 -4 -4 -10z"/>
<path d="M2462 1971 c-11 -7 -11 -9 0 -14 9 -3 15 1 15 9 0 8 -1 14 -1 14 -1
0 -7 -4 -14 -9z"/>
<path d="M2240 1962 c0 -5 7 -9 15 -9 8 0 15 4 15 9 0 4 -7 8 -15 8 -8 0 -15
-4 -15 -8z"/>
<path d="M2207 1896 c-5 -12 -1 -13 24 -4 35 12 37 18 5 18 -13 0 -26 -6 -29
-14z"/>
<path d="M1971 1886 c2 -2 15 -9 29 -15 24 -11 24 -11 6 3 -16 13 -49 24 -35
12z"/>
<path d="M2066 1873 c-6 -14 -5 -15 5 -6 7 7 10 15 7 18 -3 3 -9 -2 -12 -12z"/>
<path d="M2330 1861 c0 -11 4 -22 9 -25 4 -3 6 6 3 19 -5 30 -12 33 -12 6z"/>
<path d="M2240 1843 c0 -14 2 -15 9 -5 7 11 9 10 14 -3 4 -9 3 -13 -3 -10 -6
3 -10 1 -10 -5 0 -7 -7 -5 -16 4 -22 23 -34 11 -34 -34 0 -21 -4 -42 -10 -45
-6 -3 -7 1 -4 9 3 9 2 16 -2 16 -5 0 -9 -18 -10 -40 0 -22 4 -40 9 -40 4 0 5
5 2 10 -3 6 -2 10 3 10 5 0 21 -17 35 -37 15 -21 29 -37 32 -35 12 6 26 1 20
-7 -3 -5 0 -13 6 -17 12 -7 29 12 29 35 0 8 -6 11 -16 7 -14 -6 -15 -4 -4 9
11 13 11 15 1 13 -17 -4 -26 69 -11 87 10 11 7 12 -14 2 -14 -7 -27 -20 -29
-29 -3 -10 -14 -16 -26 -15 -20 1 -31 17 -13 17 5 0 14 11 20 25 6 14 17 25
24 25 22 0 41 39 27 56 -16 19 -29 18 -29 -3z m12 -168 c3 0 9 -3 13 -7 4 -3
0 -5 -9 -4 -9 1 -22 8 -29 16 -10 10 -9 11 3 4 8 -5 18 -9 22 -9z"/>
<path d="M2472 1830 c0 -14 2 -19 5 -12 2 6 2 18 0 25 -3 6 -5 1 -5 -13z"/>
<path d="M2540 1831 c0 -6 5 -13 10 -16 6 -3 10 1 10 9 0 9 -4 16 -10 16 -5 0
-10 -4 -10 -9z"/>
<path d="M2518 1815 c-4 -4 -2 -15 4 -24 8 -13 8 -23 -1 -37 -11 -17 -12 -16
-8 9 2 15 0 27 -4 27 -5 0 -9 -7 -9 -15 0 -8 -6 -12 -13 -9 -8 3 -14 -2 -14
-11 0 -9 10 -21 23 -25 28 -11 41 -30 15 -23 -15 4 -18 0 -16 -21 3 -28 29
-69 38 -60 3 3 4 -2 3 -11 -1 -10 -11 -22 -22 -27 -18 -9 -18 -8 -1 5 16 14
16 15 -8 31 -25 17 -25 16 -21 -9 3 -14 0 -25 -5 -25 -6 0 -7 -5 -4 -10 4 -6
11 -7 17 -4 7 5 9 1 5 -9 -3 -10 -2 -17 3 -17 6 0 10 7 10 16 0 10 6 14 14 11
8 -3 19 0 23 6 12 16 16 80 5 73 -5 -3 -9 1 -9 9 0 8 4 12 9 9 4 -3 8 6 8 20
0 14 -6 26 -12 26 -10 0 -10 2 0 9 10 6 11 14 4 27 -5 11 -14 29 -19 42 -4 13
-11 20 -15 17z"/>
<path d="M2123 1785 c0 -8 3 -13 5 -10 3 3 10 -2 16 -11 10 -13 12 -10 13 13
1 15 -1 22 -4 15 -3 -9 -9 -10 -17 -3 -9 8 -13 6 -13 -4z"/>
<path d="M2310 1775 c0 -8 7 -15 16 -15 14 0 14 3 4 15 -7 8 -14 15 -16 15 -2
0 -4 -7 -4 -15z"/>
<path d="M2045 1770 c-3 -6 1 -7 9 -4 18 7 21 14 7 14 -6 0 -13 -4 -16 -10z"/>
<path d="M1566 1723 c13 -55 24 -73 41 -73 15 0 16 2 3 10 -13 8 -12 10 3 10
24 0 21 27 -8 55 -32 33 -47 32 -39 -2z"/>
<path d="M2322 1690 c-9 -15 -10 -25 -2 -38 10 -15 11 -15 7 4 -3 15 0 21 12
20 9 0 16 5 16 13 0 23 -19 23 -33 1z"/>
<path d="M1670 1673 c0 -10 5 -25 10 -33 8 -12 10 -9 10 12 0 15 -4 30 -10 33
-5 3 -10 -2 -10 -12z"/>
<path d="M2454 1651 c4 -5 1 -12 -4 -14 -6 -3 -5 -4 2 -3 15 3 23 26 8 26 -6
0 -9 -4 -6 -9z"/>
<path d="M2259 1603 c6 -13 17 -23 23 -23 7 0 6 -5 -2 -15 -11 -13 -10 -14 3
-9 19 7 31 34 15 34 -6 0 -20 8 -31 18 -19 16 -20 16 -8 -5z"/>
<path d="M1270 1402 c0 -15 127 -108 136 -100 2 2 -10 21 -27 41 -39 48 -109
85 -109 59z"/>
<path d="M1325 1219 c-47 -8 -198 -27 -255 -32 -17 -1 -26 -9 -28 -22 -3 -29
13 -51 30 -39 13 10 71 29 178 58 95 26 120 29 136 15 8 -6 17 -9 21 -6 6 7
-16 38 -26 36 -3 -1 -28 -5 -56 -10z"/>
<path d="M347 960 c-21 -52 -30 -93 -18 -85 6 3 8 0 6 -8 -3 -7 3 -21 13 -30
17 -16 20 -16 32 -2 7 8 9 15 5 15 -4 0 1 8 12 18 10 9 12 13 4 7 -12 -8 -12
-7 -4 10 9 16 6 30 -12 65 l-23 45 -15 -35z"/>
<path d="M212 801 c4 -13 18 -16 19 -4 0 4 -5 9 -11 12 -7 2 -11 -2 -8 -8z"/>
<path d="M0 764 c0 -15 8 -33 17 -41 17 -14 17 -14 0 -9 -11 3 -17 0 -17 -10
0 -9 5 -12 13 -8 8 6 8 3 -1 -9 -21 -25 -7 -37 30 -27 17 5 35 7 40 4 5 -3 20
1 33 10 22 15 25 14 34 -2 9 -14 11 -12 12 13 6 87 6 85 -11 70 -9 -8 -22 -15
-28 -15 -7 0 -9 -7 -5 -17 4 -13 -2 -11 -23 8 -16 15 -39 30 -51 34 -13 3 -23
11 -23 16 0 5 -4 9 -10 9 -5 0 -10 -12 -10 -26z m66 -71 c-7 -7 -26 7 -26 19
0 6 6 6 15 -2 9 -7 13 -15 11 -17z"/>
</g>
</svg>
